<?xml version="1.0" encoding="UTF-8"?>
<svg xmlns="http://www.w3.org/2000/svg" style="display: none;">
  
  <symbol id="search-icon" viewBox="9 9 22 22" fill="none">    
      <path d="M29 29L24.65 24.65M27 19C27 23.4183 23.4183 27 19 27C14.5817 27 11 23.4183 11 19C11 14.5817 14.5817 11 19 11C23.4183 11 27 14.5817 27 19Z" stroke="#D0D0D0" stroke-width="2" stroke-linecap="round" stroke-linejoin="round"/>
  </symbol>
	
<symbol id="arturia-icon" viewBox="0 0 999 999">    
      <path d="M499.7,909.2c-225.9,0-409.7-183.7-409.7-409.6c0-98.7,35.1-189.4,93.5-260.2c75.2-91.1,189-149.2,316-149.2
		c225.9,0,409.7,183.7,409.7,409.6c0,98.8-35.2,189.5-93.6,260.3C740.5,851.1,626.7,909.2,499.7,909.2 M991,499.6
		C991,228.8,770.6,8.4,499.7,8.4c-177.8,0-333.9,94.9-420.2,236.8C34.3,319.5,8.2,406.7,8.2,499.8C8.2,770.7,228.6,991,499.5,991
		c160.9,0,304-77.7,393.6-197.6C954.6,711.5,991,609.7,991,499.6"/>
	   <path d="M499,264c11.7,4.8,31.1,67,46.6,117c5.6,18.1,11.6,37.2,18,57c3.2,9.8,6.4,19.6,9.6,29.3c-25.6,17.3-50.1,31-73.6,31
		c-23.7,0-48.2-13.4-73.7-30.5c2.4-7.1,4.7-14.2,7.1-21.4c6.8-20.7,13.1-40.9,19-59.9C468.4,334.2,488.7,269.2,499,264 M674.8,495.6
		c19-11.7,36.4-19.9,50.8-19.9H738v-81.7h-12.4c-27.5,0-52.9,9.8-77.1,23.3c-1.9-5.6-3.7-11.1-5.6-16.7l-9.3-27.7
		c-33.8-101.9-65.8-198.1-133.9-198.1c-68.1,0-100.1,96.2-133.9,198.1l-15,44.7c-24.2-13.7-49.5-23.6-76.9-23.6h-12.4v81.7h12.4
		c14,0,31.4,8.4,50.4,20.2c-26.4,76.6-54.7,153.1-68.5,159.4h-12.4V752h12.4c55.9,0,101.9-92.5,143.5-206.8
		c31.6,19.3,65.4,35.2,100.5,35.2c34.8,0,68.6-16.1,100.3-35.6C642.7,662.3,687.9,752,743.7,752h12.4v-83.2l0.9-12.3h-12.4
		C729.3,650.6,700.4,571,674.8,495.6"/>
  </symbol>
	
</svg>
