<?xml version="1.0" encoding="UTF-8"?>
<svg xmlns="http://www.w3.org/2000/svg" style="display: none;">
  
  <symbol id="search-icon" viewBox="9 9 22 22" fill="none">    
      <path d="M29 29L24.65 24.65M27 19C27 23.4183 23.4183 27 19 27C14.5817 27 11 23.4183 11 19C11 14.5817 14.5817 11 19 11C23.4183 11 27 14.5817 27 19Z" stroke="#D0D0D0" stroke-width="2" stroke-linecap="round" stroke-linejoin="round"/>
  </symbol>
	
  <symbol id="welcome-icon" width="65" height="65" viewBox="0 0 65 65" fill="none">    
	<path d="M46.2752 29.8768C46.2781 30.9715 45.8436 32.0216 45.0685 32.7942C44.8929 32.9661 44.6575 33.063 44.4119 33.064C44.0361 33.0655 43.6966 32.8395 43.5526 32.4924C43.4086 32.1456 43.4888 31.7459 43.755 31.4807C44.1783 31.0542 44.4163 30.4778 44.4163 29.8768C44.4163 29.2758 44.1783 28.6994 43.755 28.2732C43.3923 27.9101 43.3923 27.3221 43.755 26.9594C44.1178 26.5967 44.7057 26.5967 45.0685 26.9594C45.8436 27.732 46.2781 28.7825 46.2752 29.8768Z" fill="white"/>
	<path d="M28.3225 21.685L25.1099 18.4723L25.1556 18.5129L28.3225 21.685Z" fill="black"/>
	<path d="M47.0797 21.7508C46.9066 21.5474 46.7231 21.3537 46.5348 21.1705L40.7458 15.3814C40.2303 14.8656 39.5611 14.5319 38.8393 14.43C38.1175 14.3281 37.3819 14.4634 36.7439 14.8163L32.3651 10.4324C31.6821 9.75412 30.759 9.37366 29.7963 9.37366C28.834 9.37366 27.9105 9.75416 27.2279 10.4324C26.781 10.8753 26.4597 11.4288 26.2961 12.0361C25.3319 11.2239 24.0156 10.9701 22.8187 11.3654C21.6216 11.7611 20.7153 12.7491 20.4247 13.9755C20.1342 15.2022 20.5005 16.4917 21.3928 17.3822L21.6018 17.5912C20.3619 17.9423 19.4012 18.9235 19.0754 20.1701C18.75 21.4168 19.1088 22.7425 20.0181 23.6551L20.6496 24.2866C20.0493 24.4506 19.503 24.7701 19.0659 25.213C18.3883 25.8953 18.0078 26.8177 18.0078 27.7793C18.0078 28.7408 18.3883 29.6633 19.0659 30.3456L28.2308 39.5105V39.5101C30.6745 41.9665 33.992 43.3542 37.4566 43.3695H37.5281C40.9486 43.3811 44.2319 42.0245 46.647 39.6019C48.9844 37.2438 50.3312 34.0813 50.4117 30.7624C50.4918 27.4435 49.2999 24.2192 47.0797 21.7508ZM45.3129 38.2729C43.2344 40.3666 40.3965 41.5294 37.4465 41.4961C34.471 41.4888 31.6204 40.298 29.5239 38.1866L20.359 29.0217H20.3594C20.0278 28.6898 19.8443 28.2382 19.8501 27.7692C19.8446 27.2987 20.0278 26.8457 20.3594 26.5116C20.6992 26.1921 21.1479 26.0143 21.6144 26.0143C22.0809 26.0143 22.5296 26.1921 22.8695 26.5116L29.2799 32.9115C29.6462 33.2398 30.2055 33.2246 30.5534 32.8767C30.9013 32.5289 30.9165 31.9695 30.5882 31.6032L24.2035 25.2131L21.3318 22.3414C20.9992 22.0084 20.8128 21.5572 20.8128 21.0864C20.8128 20.6159 20.9992 20.1647 21.3318 19.8313C21.6706 19.5099 22.1197 19.3304 22.5869 19.3304C23.0541 19.3304 23.5031 19.5099 23.842 19.8313L31.7084 27.6977C32.0711 28.0593 32.6583 28.0579 33.0196 27.6952C33.3809 27.3324 33.3798 26.7455 33.017 26.3843L22.7016 16.0688C22.3715 15.7344 22.1865 15.2835 22.1865 14.8137C22.1865 14.344 22.3715 13.8931 22.7016 13.5587C23.0418 13.2377 23.4916 13.0592 23.9591 13.0592C24.4267 13.0592 24.8764 13.2377 25.2167 13.5587L34.1778 22.5198C34.5405 22.8825 35.1288 22.8825 35.4915 22.5198C35.8542 22.157 35.8542 21.5687 35.4915 21.206L30.9092 16.6237L28.5413 14.2562C28.2091 13.9229 28.0223 13.4717 28.0223 13.0012C28.0223 12.5303 28.2091 12.0791 28.5413 11.7457C28.8801 11.4244 29.3295 11.2448 29.7964 11.2448C30.2636 11.2448 30.713 11.4244 31.0515 11.7457L35.4302 16.1296C35.0784 16.768 34.9434 17.5033 35.0454 18.225C35.1473 18.9465 35.4806 19.6158 35.9953 20.1315L38.3987 22.5349C37.6653 23.4726 37.2765 24.6333 37.2968 25.8233C37.3171 27.0134 37.7458 28.1604 38.5108 29.0722C38.5286 29.0951 38.5489 29.1158 38.5717 29.1335C38.9073 29.4778 39.4517 29.5046 39.8192 29.1945C40.0089 29.037 40.1279 28.8103 40.1496 28.5648C40.1718 28.3192 40.0949 28.0747 39.9363 27.8861C39.3962 27.2419 39.118 26.4181 39.1579 25.5784C39.1975 24.7387 39.5519 23.9447 40.1504 23.3546C40.1816 23.3198 40.2157 23.2871 40.252 23.2578C40.4663 23.0953 40.5998 22.8479 40.6187 22.5798C40.6372 22.3114 40.5389 22.0481 40.3488 21.8576L37.294 18.8028C37.0201 18.4071 36.9487 17.9055 37.1014 17.4492C37.2537 16.9929 37.6125 16.6352 38.0692 16.4836C38.5258 16.3324 39.0271 16.4049 39.4221 16.6795L45.1959 22.4787C45.3537 22.6365 45.5014 22.7943 45.6541 22.988H45.6544C47.5569 25.099 48.5809 27.8572 48.5178 30.698C48.4543 33.5392 47.3081 36.2487 45.3131 38.2727L45.3129 38.2729Z" fill="black"/>
	<path d="M46.2752 29.8768C46.2781 30.9715 45.8436 32.0216 45.0685 32.7942C44.8929 32.9661 44.6575 33.063 44.4119 33.064C44.0361 33.0655 43.6966 32.8395 43.5526 32.4924C43.4086 32.1456 43.4888 31.7459 43.755 31.4807C44.1783 31.0542 44.4163 30.4778 44.4163 29.8768C44.4163 29.2758 44.1783 28.6994 43.755 28.2732C43.3923 27.9101 43.3923 27.3221 43.755 26.9594C44.1178 26.5967 44.7057 26.5967 45.0685 26.9594C45.8436 27.732 46.2781 28.7825 46.2752 29.8768Z" fill="black"/>
	<path d="M42.4922 14.8367C41.9804 14.8367 41.5655 14.4217 41.5655 13.9099C41.564 13.3096 41.325 12.734 40.9002 12.3093C40.4758 11.8849 39.9001 11.6455 39.2995 11.6444C38.7867 11.6444 38.3706 11.2283 38.3706 10.7151C38.3706 10.2018 38.7867 9.78577 39.2995 9.78577C40.3931 9.78722 41.4414 10.2221 42.2144 10.995C42.9878 11.7684 43.4227 12.8166 43.4237 13.9099C43.4237 14.1566 43.3254 14.3931 43.1506 14.5672C42.9757 14.7409 42.7389 14.8382 42.4922 14.8367Z" fill="black"/>
	<path d="M45.6691 14.6436C45.1573 14.6436 44.7423 14.229 44.7423 13.7172C44.7409 12.3243 44.1866 10.9891 43.2015 10.0048C42.2163 9.02066 40.8804 8.46788 39.4879 8.46788C38.9747 8.46788 38.5586 8.05184 38.5586 7.53857C38.5586 7.02532 38.9746 6.60925 39.4879 6.60925C41.3784 6.60925 43.1913 7.36009 44.5283 8.69705C45.865 10.0337 46.6161 11.847 46.6161 13.7374C46.6106 13.983 46.5076 14.2166 46.3303 14.3867C46.1525 14.5568 45.9146 14.6493 45.669 14.6435L45.6691 14.6436Z" fill="black"/>
	<path d="M19.8649 37.4633C18.7717 37.4622 17.7234 37.0273 16.95 36.254C16.177 35.481 15.7421 34.4328 15.7407 33.3391C15.7407 32.8262 16.1568 32.4102 16.67 32.4102C17.1833 32.4102 17.5994 32.8262 17.5994 33.3391C17.6004 33.9398 17.8398 34.5154 18.2642 34.9398C18.689 35.3645 19.2646 35.6036 19.8649 35.605C20.3781 35.605 20.7942 36.0211 20.7942 36.5343C20.7942 37.0472 20.3781 37.4633 19.8649 37.4633Z" fill="black"/>
	<path d="M19.6716 40.6408C17.7812 40.6408 15.9678 39.89 14.6313 38.5534C13.2943 37.2164 12.5435 35.4035 12.5435 33.513C12.5435 32.9997 12.9595 32.5837 13.4728 32.5837C13.986 32.5837 14.4017 32.9997 14.4017 33.513C14.3977 34.9116 14.9516 36.2544 15.9407 37.2436C16.9298 38.2327 18.2727 38.7866 19.6717 38.7826C20.185 38.7826 20.601 39.1987 20.601 39.712C20.601 40.2248 20.185 40.6409 19.6717 40.6409L19.6716 40.6408Z" fill="black"/>
  </symbol>
   
    <symbol id="arturia-icon" viewBox="0 0 999 999">    
      <path d="M499.7,909.2c-225.9,0-409.7-183.7-409.7-409.6c0-98.7,35.1-189.4,93.5-260.2c75.2-91.1,189-149.2,316-149.2
		c225.9,0,409.7,183.7,409.7,409.6c0,98.8-35.2,189.5-93.6,260.3C740.5,851.1,626.7,909.2,499.7,909.2 M991,499.6
		C991,228.8,770.6,8.4,499.7,8.4c-177.8,0-333.9,94.9-420.2,236.8C34.3,319.5,8.2,406.7,8.2,499.8C8.2,770.7,228.6,991,499.5,991
		c160.9,0,304-77.7,393.6-197.6C954.6,711.5,991,609.7,991,499.6"/>
	   <path d="M499,264c11.7,4.8,31.1,67,46.6,117c5.6,18.1,11.6,37.2,18,57c3.2,9.8,6.4,19.6,9.6,29.3c-25.6,17.3-50.1,31-73.6,31
		c-23.7,0-48.2-13.4-73.7-30.5c2.4-7.1,4.7-14.2,7.1-21.4c6.8-20.7,13.1-40.9,19-59.9C468.4,334.2,488.7,269.2,499,264 M674.8,495.6
		c19-11.7,36.4-19.9,50.8-19.9H738v-81.7h-12.4c-27.5,0-52.9,9.8-77.1,23.3c-1.9-5.6-3.7-11.1-5.6-16.7l-9.3-27.7
		c-33.8-101.9-65.8-198.1-133.9-198.1c-68.1,0-100.1,96.2-133.9,198.1l-15,44.7c-24.2-13.7-49.5-23.6-76.9-23.6h-12.4v81.7h12.4
		c14,0,31.4,8.4,50.4,20.2c-26.4,76.6-54.7,153.1-68.5,159.4h-12.4V752h12.4c55.9,0,101.9-92.5,143.5-206.8
		c31.6,19.3,65.4,35.2,100.5,35.2c34.8,0,68.6-16.1,100.3-35.6C642.7,662.3,687.9,752,743.7,752h12.4v-83.2l0.9-12.3h-12.4
		C729.3,650.6,700.4,571,674.8,495.6"/>
  </symbol>
   
</svg>
