<?xml version="1.0" encoding="UTF-8"?>
<svg xmlns="http://www.w3.org/2000/svg" style="display: none;">
   <svg id="badge-audiobiographer" viewBox="0 0 59 60" fill="none" xmlns="http://www.w3.org/2000/svg">
<path d="M58.9199 22.41C58.6499 23.01 58.4999 23.39 58.3099 23.75C57.3099 25.56 56.3199 27.37 55.2799 29.16C54.9299 29.75 54.8999 30.22 55.2599 30.83C56.3299 32.67 57.3499 34.54 58.3599 36.41C59.0099 37.61 58.8299 38.24 57.6599 38.94C55.9399 39.97 54.2399 41.02 52.4799 41.99C51.6599 42.44 51.2899 42.97 51.3099 43.94C51.3599 45.85 51.2699 47.76 51.2499 49.67C51.2299 51.49 50.8999 51.8 49.0499 51.84C47.0499 51.88 45.0399 51.95 43.0399 51.94C42.2999 51.94 41.8899 52.22 41.5299 52.83C40.4899 54.65 39.3899 56.44 38.3099 58.24C37.6199 59.39 36.9599 59.57 35.7699 58.92C33.8999 57.9 32.0399 56.87 30.1899 55.8C29.6299 55.47 29.1899 55.45 28.6099 55.78C26.7599 56.84 24.8899 57.85 23.0199 58.86C21.7499 59.55 21.1499 59.38 20.4099 58.17C19.3699 56.46 18.3099 54.76 17.3499 53C16.8899 52.15 16.3199 51.86 15.3799 51.88C13.4099 51.92 11.4399 51.84 9.45991 51.8C7.92991 51.77 7.52991 51.38 7.49991 49.88C7.44991 47.75 7.38991 45.62 7.37991 43.48C7.37991 42.87 7.15991 42.49 6.62991 42.18C4.77991 41.12 2.95991 40.02 1.12991 38.92C-0.0900905 38.19 -0.270091 37.57 0.419909 36.33C1.40991 34.55 2.37991 32.76 3.41991 31.02C3.83991 30.31 3.87991 29.74 3.43991 29.01C2.38991 27.27 1.42991 25.47 0.439909 23.69C-0.280091 22.39 -0.12009 21.78 1.14991 21.02C2.89991 19.98 4.63991 18.92 6.40991 17.93C7.12991 17.53 7.45991 17.05 7.43991 16.2C7.40991 14.23 7.47991 12.25 7.50991 10.28C7.53991 8.52001 7.86991 8.19001 9.65991 8.16001C11.6999 8.12001 13.7299 8.05001 15.7699 8.06001C16.4699 8.06001 16.8599 7.80001 17.1999 7.21001C18.2399 5.39001 19.3399 3.60001 20.4199 1.80001C21.1499 0.590008 21.7799 0.420008 23.0199 1.11001C24.8599 2.12001 26.6999 3.13001 28.5099 4.18001C29.0999 4.53001 29.5699 4.55001 30.1799 4.20001C31.9899 3.14001 33.8399 2.14001 35.6699 1.13001C36.9699 0.420008 37.5799 0.580008 38.3399 1.83001C39.3899 3.57001 40.4599 5.31001 41.4499 7.08001C41.8499 7.80001 42.3199 8.12001 43.1799 8.11001C45.2799 8.08001 47.3799 8.15001 49.4799 8.20001C50.7499 8.23001 51.2099 8.67001 51.2399 9.93001C51.2999 12.13 51.3499 14.32 51.3599 16.52C51.3599 17.14 51.5799 17.51 52.1199 17.81C53.9899 18.89 55.8599 19.98 57.6899 21.14C58.1799 21.45 58.5099 22 58.8899 22.41H58.9199Z" fill="#FF3F3A"/>
</svg>
   
   <symbol id="empty-circle-icon" viewBox="0 0 1024 1024">    
      <path d="M512 85.333333a426.666667 426.666667 0 1 0 426.666667 426.666667A426.666667 426.666667 0 0 0 512 85.333333z m0 768a341.333333 341.333333 0 1 1 341.333333-341.333333 341.333333 341.333333 0 0 1-341.333333 341.333333z"  />
   </symbol>
   
    <symbol id="full-circle-icon" viewBox="0 0 1024 1024">    
      <path d="M950.857143 512q0 119.428571-58.857143 220.285714t-159.714286 159.714286-220.285714 58.857143-220.285714-58.857143-159.714286-159.714286-58.857143-220.285714 58.857143-220.285714 159.714286-159.714286 220.285714-58.857143 220.285714 58.857143 159.714286 159.714286 58.857143 220.285714z"  />
   </symbol>
   
  <symbol id="search-icon" width="40" height="40" viewBox="4 4 30 30" fill="none">    
      <path d="M29 29L24.65 24.65M27 19C27 23.4183 23.4183 27 19 27C14.5817 27 11 23.4183 11 19C11 14.5817 14.5817 11 19 11C23.4183 11 27 14.5817 27 19Z" stroke="#D0D0D0" stroke-width="2" stroke-linecap="round" stroke-linejoin="round"/>
  </symbol>
</svg>
