<?xml version="1.0" encoding="UTF-8"?>
<svg xmlns="http://www.w3.org/2000/svg" style="display: none;">
   <svg id="badge-audiobiographer" viewBox="0 0 59 60" fill="none" xmlns="http://www.w3.org/2000/svg">
<path d="M58.9199 22.41C58.6499 23.01 58.4999 23.39 58.3099 23.75C57.3099 25.56 56.3199 27.37 55.2799 29.16C54.9299 29.75 54.8999 30.22 55.2599 30.83C56.3299 32.67 57.3499 34.54 58.3599 36.41C59.0099 37.61 58.8299 38.24 57.6599 38.94C55.9399 39.97 54.2399 41.02 52.4799 41.99C51.6599 42.44 51.2899 42.97 51.3099 43.94C51.3599 45.85 51.2699 47.76 51.2499 49.67C51.2299 51.49 50.8999 51.8 49.0499 51.84C47.0499 51.88 45.0399 51.95 43.0399 51.94C42.2999 51.94 41.8899 52.22 41.5299 52.83C40.4899 54.65 39.3899 56.44 38.3099 58.24C37.6199 59.39 36.9599 59.57 35.7699 58.92C33.8999 57.9 32.0399 56.87 30.1899 55.8C29.6299 55.47 29.1899 55.45 28.6099 55.78C26.7599 56.84 24.8899 57.85 23.0199 58.86C21.7499 59.55 21.1499 59.38 20.4099 58.17C19.3699 56.46 18.3099 54.76 17.3499 53C16.8899 52.15 16.3199 51.86 15.3799 51.88C13.4099 51.92 11.4399 51.84 9.45991 51.8C7.92991 51.77 7.52991 51.38 7.49991 49.88C7.44991 47.75 7.38991 45.62 7.37991 43.48C7.37991 42.87 7.15991 42.49 6.62991 42.18C4.77991 41.12 2.95991 40.02 1.12991 38.92C-0.0900905 38.19 -0.270091 37.57 0.419909 36.33C1.40991 34.55 2.37991 32.76 3.41991 31.02C3.83991 30.31 3.87991 29.74 3.43991 29.01C2.38991 27.27 1.42991 25.47 0.439909 23.69C-0.280091 22.39 -0.12009 21.78 1.14991 21.02C2.89991 19.98 4.63991 18.92 6.40991 17.93C7.12991 17.53 7.45991 17.05 7.43991 16.2C7.40991 14.23 7.47991 12.25 7.50991 10.28C7.53991 8.52001 7.86991 8.19001 9.65991 8.16001C11.6999 8.12001 13.7299 8.05001 15.7699 8.06001C16.4699 8.06001 16.8599 7.80001 17.1999 7.21001C18.2399 5.39001 19.3399 3.60001 20.4199 1.80001C21.1499 0.590008 21.7799 0.420008 23.0199 1.11001C24.8599 2.12001 26.6999 3.13001 28.5099 4.18001C29.0999 4.53001 29.5699 4.55001 30.1799 4.20001C31.9899 3.14001 33.8399 2.14001 35.6699 1.13001C36.9699 0.420008 37.5799 0.580008 38.3399 1.83001C39.3899 3.57001 40.4599 5.31001 41.4499 7.08001C41.8499 7.80001 42.3199 8.12001 43.1799 8.11001C45.2799 8.08001 47.3799 8.15001 49.4799 8.20001C50.7499 8.23001 51.2099 8.67001 51.2399 9.93001C51.2999 12.13 51.3499 14.32 51.3599 16.52C51.3599 17.14 51.5799 17.51 52.1199 17.81C53.9899 18.89 55.8599 19.98 57.6899 21.14C58.1799 21.45 58.5099 22 58.8899 22.41H58.9199Z" fill="#FF3F3A"/>
</svg>
   
   <symbol id="empty-circle-icon" viewBox="0 0 1024 1024">    
      <path d="M512 85.333333a426.666667 426.666667 0 1 0 426.666667 426.666667A426.666667 426.666667 0 0 0 512 85.333333z m0 768a341.333333 341.333333 0 1 1 341.333333-341.333333 341.333333 341.333333 0 0 1-341.333333 341.333333z"  />
   </symbol>
   
    <symbol id="full-circle-icon" viewBox="0 0 1024 1024">    
      <path d="M950.857143 512q0 119.428571-58.857143 220.285714t-159.714286 159.714286-220.285714 58.857143-220.285714-58.857143-159.714286-159.714286-58.857143-220.285714 58.857143-220.285714 159.714286-159.714286 220.285714-58.857143 220.285714 58.857143 159.714286 159.714286 58.857143 220.285714z"  />
   </symbol>
   
  <symbol id="search-icon" viewBox="9 9 22 22" fill="none">    
      <path d="M29 29L24.65 24.65M27 19C27 23.4183 23.4183 27 19 27C14.5817 27 11 23.4183 11 19C11 14.5817 14.5817 11 19 11C23.4183 11 27 14.5817 27 19Z" stroke="#D0D0D0" stroke-width="2" stroke-linecap="round" stroke-linejoin="round"/>
  </symbol>
   
    <symbol id="arturia-icon" viewBox="0 0 152 152">    
      <path d="M76 0.0350952C34.0056 0.0350952 0 34.0486 0 76.0174C0 117.986 34.0056 152 76 152C117.959 152 152 117.986 152 76.0174C151.965 34.0486 117.959 0.0350952 76 0.0350952ZM76 142.984C38.9898 142.984 9.01395 113.001 9.01395 76.0174C9.01395 39.0339 38.9898 9.05114 76 9.05114C112.975 9.05114 142.986 39.0339 142.986 76.0174C142.951 113.001 112.975 142.984 76 142.984Z" fill="#181817"/>
      <path d="M98.553 60.1423C92.367 41.8274 87.1354 22.8406 76.0005 22.8406C64.8656 22.8406 59.634 41.792 53.4479 60.1423C45.9186 82.488 38.6014 105.293 34.1475 105.293V117.633C45.1409 117.633 54.8619 90.1605 62.5326 66.6834C68.2237 49.217 71.9707 33.9428 75.9651 33.9428C79.9595 33.9428 83.4591 48.4038 88.9382 65.2338C96.6796 88.9937 106.542 117.633 117.783 117.633V105.505C113.117 105.505 106.082 82.488 98.553 60.1423Z" fill="#181817"/>
      <path d="M76.0001 78.3512C63.5573 78.3512 51.6094 60.4606 37.2578 60.4606V70.2191C47.0848 70.2191 61.3304 88.1805 76.0001 88.1805C90.4578 88.1805 104.668 70.2191 114.742 70.2191V60.4606C100.179 60.4606 88.2308 78.3512 76.0001 78.3512Z" fill="#181817"/>
      <path d="M76 0C34.0409 0 0 34.0135 0 75.9823C0 117.951 34.0056 151.965 76 151.965C117.959 151.965 152 117.951 152 75.9823C152 34.0135 117.994 0 76 0ZM76 142.949C39.0251 142.949 9.01395 112.966 9.01395 75.9823C9.01395 38.9988 38.9898 9.01605 76 9.01605C112.975 9.01605 142.986 38.9988 142.986 75.9823C142.986 112.966 113.01 142.949 76 142.949Z" fill="#181817"/>
      <path d="M98.553 60.107C92.367 41.792 87.1354 22.8053 76.0005 22.8053C64.9009 22.8053 59.634 41.7567 53.4479 60.107C45.9186 82.4527 38.6014 105.258 34.1475 105.258V117.598C45.1409 117.598 54.8619 90.1251 62.5326 66.6481C68.2237 49.1817 71.9707 33.9074 76.0005 33.9074C79.9949 33.9074 83.4944 48.3685 88.9735 65.1984C96.7149 88.9584 106.577 117.598 117.818 117.598V105.47C113.117 105.47 106.118 82.488 98.553 60.107Z" fill="#181817"/>
      <path d="M76.0353 78.3159C63.5925 78.3159 51.6446 60.4252 37.293 60.4252V70.1838C47.1199 70.1838 61.3655 88.1452 76.0353 88.1452C90.493 88.1452 104.703 70.1838 114.778 70.1838V60.4252C100.214 60.4252 88.266 78.3159 76.0353 78.3159Z" fill="#181817"/>
   </symbol>
   
</svg>
