<?xml version="1.0" encoding="UTF-8"?>
<svg xmlns="http://www.w3.org/2000/svg" style="display: none;">
   <symbol id="home-icon" viewBox="-1 -1 30 30">
      <path d="M 15 2 A 1 1 0 0 0 14.300781 2.2851562 L 3.3925781 11.207031 A 1 1 0 0 0 3.3554688 11.236328 L 3.3183594 11.267578 L 3.3183594 11.269531 A 1 1 0 0 0 3 12 A 1 1 0 0 0 4 13 L 5 13 L 5 24 C 5 25.105 5.895 26 7 26 L 23 26 C 24.105 26 25 25.105 25 24 L 25 13 L 26 13 A 1 1 0 0 0 27 12 A 1 1 0 0 0 26.681641 11.267578 L 26.666016 11.255859 A 1 1 0 0 0 26.597656 11.199219 L 25 9.8925781 L 25 6 C 25 5.448 24.552 5 24 5 L 23 5 C 22.448 5 22 5.448 22 6 L 22 7.4394531 L 15.677734 2.2675781 A 1 1 0 0 0 15 2 z M 18 15 L 22 15 L 22 23 L 18 23 L 18 15 z"/>
   </symbol>
   
   <symbol id="arturia-icon" viewBox="0 0 982.8 982.6">
      <path d="M491.5,900.8c-225.9,0-409.7-183.7-409.7-409.6A407.67781,407.67781,0,0,1,175.3,231c75.2-91.1,189-149.2,316-149.2C717.2,81.8,901,265.5,901,491.4a407.83123,407.83123,0,0,1-93.6,260.3c-75.1,91-188.9,149.1-315.9,149.1M982.8,491.2C982.8,220.4,762.4,0,491.5,0,313.7,0,157.6,94.9,71.3,236.8A488.48546,488.48546,0,0,0,0,491.4C0,762.3,220.4,982.6,491.3,982.6c160.9,0,304-77.7,393.6-197.6a487.748,487.748,0,0,0,97.9-293.8"/><path d="M490.8,255.6c11.7,4.8,31.1,67,46.6,117,5.6,18.1,11.6,37.2,18,57,3.2,9.8,6.4,19.6,9.6,29.3-25.6,17.3-50.1,31-73.6,31-23.7,0-48.2-13.4-73.7-30.5,2.4-7.1,4.7-14.2,7.1-21.4,6.8-20.7,13.1-40.9,19-59.9,16.4-52.3,36.7-117.3,47-122.5M666.6,487.2c19-11.7,36.4-19.9,50.8-19.9h12.4V385.6H717.4c-27.5,0-52.9,9.8-77.1,23.3-1.9-5.6-3.7-11.1-5.6-16.7l-9.3-27.7c-33.8-101.9-65.8-198.1-133.9-198.1s-100.1,96.2-133.9,198.1l-15,44.7c-24.2-13.7-49.5-23.6-76.9-23.6h-12.4v81.7h12.4c14,0,31.4,8.4,50.4,20.2-26.4,76.6-54.7,153.1-68.5,159.4h-12.4V743.6h12.4c55.9,0,101.9-92.5,143.5-206.8,31.6,19.3,65.4,35.2,100.5,35.2,34.8,0,68.6-16.1,100.3-35.6C634.5,653.9,679.7,743.6,735.5,743.6h12.4V660.4l.9-12.3H736.4c-15.3-5.9-44.2-85.5-69.8-160.9"/>
   </symbol>
   
   <symbol id="empty-circle-icon" viewBox="0 0 1024 1024">    
      <path d="M512 85.333333a426.666667 426.666667 0 1 0 426.666667 426.666667A426.666667 426.666667 0 0 0 512 85.333333z m0 768a341.333333 341.333333 0 1 1 341.333333-341.333333 341.333333 341.333333 0 0 1-341.333333 341.333333z"  />
   </symbol>
   
    <symbol id="full-circle-icon" viewBox="0 0 1024 1024">    
      <path d="M950.857143 512q0 119.428571-58.857143 220.285714t-159.714286 159.714286-220.285714 58.857143-220.285714-58.857143-159.714286-159.714286-58.857143-220.285714 58.857143-220.285714 159.714286-159.714286 220.285714-58.857143 220.285714 58.857143 159.714286 159.714286 58.857143 220.285714z"  />
   </symbol>
</svg>
