<svg xmlns="http://www.w3.org/2000/svg" width="16" height="16" fill="none"><path d="M8 0L4.702.048C3.85.088 3.27.222 2.76.42c-.526.204-.973.478-1.417.923A3.9 3.9 0 0 0 .42 2.76C.222 3.27.087 3.85.048 4.702L0 8l.048 3.298c.04.851.174 1.432.372 1.942a3.92 3.92 0 0 0 .923 1.417 3.91 3.91 0 0 0 1.417.923c.511.197 1.091.333 1.942.372L8 16l3.298-.048c.851-.04 1.432-.175 1.942-.372a3.93 3.93 0 0 0 1.417-.923c.444-.445.719-.89.923-1.417.197-.51.333-1.091.372-1.942L16 8l-.048-3.298c-.04-.851-.175-1.433-.372-1.942-.204-.526-.479-.973-.923-1.417S13.767.623 13.24.42c-.51-.198-1.091-.333-1.942-.372L8 0zm0 1.44l3.233.047c.78.037 1.203.166 1.485.277.375.145.64.318.921.597a2.47 2.47 0 0 1 .597.921c.109.281.24.705.275 1.485L14.559 8l-.049 3.233c-.041.78-.171 1.203-.281 1.485a2.54 2.54 0 0 1-.599.921c-.279.279-.549.453-.92.597-.28.109-.71.24-1.49.275l-3.239.047c-2.141 0-2.391-.01-3.239-.049-.781-.041-1.211-.171-1.491-.281-.379-.149-.64-.319-.919-.599s-.46-.549-.6-.92c-.11-.28-.239-.71-.28-1.49L1.41 7.99l.041-3.241c.041-.78.17-1.209.28-1.489a2.37 2.37 0 0 1 .6-.921c.279-.279.54-.459.919-.599.28-.111.701-.241 1.481-.281l3.239-.04.03.02zm0 2.452A4.11 4.11 0 0 0 3.892 8 4.11 4.11 0 0 0 8 12.108 4.11 4.11 0 0 0 12.108 8 4.11 4.11 0 0 0 8 3.892zm0 6.775c-1.473 0-2.667-1.193-2.667-2.667S6.527 5.333 8 5.333 10.667 6.527 10.667 8 9.473 10.667 8 10.667zm5.231-6.937a.96.96 0 1 1-1.92 0 .96.96 0 1 1 1.92 0z" fill="#ffffff"/></svg>
