<svg width="15" height="15" viewBox="0 0 15 15" fill="none" xmlns="http://www.w3.org/2000/svg">
<path d="M7.5 0C5.4625 0 5.20813 0.009375 4.40812 0.045C3.60938 0.0825 3.06562 0.208125 2.5875 0.39375C2.09437 0.585 1.67562 0.841875 1.25875 1.25875C0.841875 1.67562 0.584375 2.09375 0.39375 2.5875C0.208125 3.06562 0.081875 3.60938 0.045 4.40812C0.0075 5.20813 0 5.4625 0 7.5C0 9.5375 0.009375 9.79187 0.045 10.5919C0.0825 11.39 0.208125 11.9344 0.39375 12.4125C0.585 12.905 0.841875 13.3244 1.25875 13.7413C1.67562 14.1575 2.09375 14.4156 2.5875 14.6063C3.06625 14.7913 3.61 14.9181 4.40812 14.955C5.20813 14.9925 5.4625 15 7.5 15C9.5375 15 9.79187 14.9906 10.5919 14.955C11.39 14.9175 11.9344 14.7913 12.4125 14.6063C12.905 14.415 13.3244 14.1575 13.7413 13.7413C14.1575 13.3244 14.4156 12.9069 14.6063 12.4125C14.7913 11.9344 14.9181 11.39 14.955 10.5919C14.9925 9.79187 15 9.5375 15 7.5C15 5.4625 14.9906 5.20813 14.955 4.40812C14.9175 3.61 14.7913 3.065 14.6063 2.5875C14.415 2.09437 14.1575 1.67562 13.7413 1.25875C13.3244 0.841875 12.9069 0.584375 12.4125 0.39375C11.9344 0.208125 11.39 0.081875 10.5919 0.045C9.79187 0.0075 9.5375 0 7.5 0ZM7.5 1.35C9.50187 1.35 9.74063 1.36 10.5312 1.39437C11.2625 1.42875 11.6594 1.55 11.9231 1.65375C12.2744 1.78937 12.5231 1.95188 12.7869 2.21375C13.0487 2.47625 13.2112 2.72563 13.3469 3.07687C13.4494 3.34062 13.5719 3.7375 13.605 4.46875C13.6406 5.26 13.6487 5.4975 13.6487 7.5C13.6487 9.5025 13.6394 9.74063 13.6025 10.5312C13.5644 11.2625 13.4425 11.6594 13.3394 11.9231C13.1994 12.2744 13.04 12.5231 12.7775 12.7869C12.5156 13.0487 12.2625 13.2112 11.915 13.3469C11.6525 13.4494 11.2494 13.5719 10.5181 13.605C9.72188 13.6406 9.4875 13.6487 7.48125 13.6487C5.47438 13.6487 5.24 13.6394 4.44438 13.6025C3.7125 13.5644 3.30938 13.4425 3.04688 13.3394C2.69125 13.1994 2.44688 13.04 2.185 12.7775C1.92188 12.5156 1.75375 12.2625 1.6225 11.915C1.51937 11.6525 1.39813 11.2494 1.36 10.5181C1.33188 9.73063 1.32187 9.4875 1.32187 7.49062C1.32187 5.49312 1.33188 5.24937 1.36 4.4525C1.39813 3.72125 1.51937 3.31875 1.6225 3.05625C1.75375 2.7 1.92188 2.45625 2.185 2.19313C2.44688 1.93125 2.69125 1.7625 3.04688 1.63188C3.30938 1.52813 3.70375 1.40625 4.435 1.36875C5.23187 1.34063 5.46625 1.33125 7.47188 1.33125L7.5 1.35ZM7.5 3.64875C5.37187 3.64875 3.64875 5.37375 3.64875 7.5C3.64875 9.62813 5.37375 11.3513 7.5 11.3513C9.62813 11.3513 11.3513 9.62625 11.3513 7.5C11.3513 5.37187 9.62625 3.64875 7.5 3.64875ZM7.5 10C6.11875 10 5 8.88125 5 7.5C5 6.11875 6.11875 5 7.5 5C8.88125 5 10 6.11875 10 7.5C10 8.88125 8.88125 10 7.5 10ZM12.4038 3.49687C12.4038 3.99375 12 4.39687 11.5037 4.39687C11.0069 4.39687 10.6038 3.99312 10.6038 3.49687C10.6038 3.00062 11.0075 2.5975 11.5037 2.5975C11.9994 2.59688 12.4038 3.00062 12.4038 3.49687Z" fill="white"/>
</svg>
