<svg xmlns="http://www.w3.org/2000/svg" width="16" height="16" fill="none"><path d="M15.969 1.549c-.599.264-1.234.438-1.883.517.684-.411 1.196-1.056 1.442-1.815-.634.37-1.337.639-2.085.789a3.28 3.28 0 0 0-1.86-.996 3.28 3.28 0 0 0-2.082.343 3.28 3.28 0 0 0-1.647 3.64C5.127 3.899 2.711 2.589 1.093.61.799 1.11.646 1.68.649 2.26a3.28 3.28 0 0 0 1.459 2.731A3.27 3.27 0 0 1 .623 4.58v.04a3.28 3.28 0 0 0 2.631 3.218 3.33 3.33 0 0 1-1.475.057 3.29 3.29 0 0 0 3.069 2.278A6.58 6.58 0 0 1 .78 11.576a6.97 6.97 0 0 1-.78-.045 9.33 9.33 0 0 0 5.038 1.473c6.035 0 9.332-4.997 9.332-9.323 0-.14 0-.28-.01-.42.644-.463 1.2-1.039 1.64-1.699l-.031-.013z" fill="#ffffff"/></svg>
