<svg width="15" height="11" viewBox="0 0 15 11" fill="none" xmlns="http://www.w3.org/2000/svg">
<path d="M14.6862 1.71798C14.6015 1.38575 14.4344 1.08253 14.2016 0.838669C13.9689 0.594813 13.6786 0.418886 13.36 0.328504C12.1906 7.7546e-08 7.5 0 7.5 0C7.5 0 2.80937 7.7546e-08 1.63937 0.328504C1.32088 0.419045 1.03081 0.595036 0.798174 0.838876C0.565538 1.08272 0.398495 1.38586 0.31375 1.71798C0 2.94352 0 5.5 0 5.5C0 5.5 0 8.05648 0.31375 9.28202C0.398491 9.61425 0.56561 9.91748 0.79837 10.1613C1.03113 10.4052 1.32136 10.5811 1.64 10.6715C2.80938 11 7.5 11 7.5 11C7.5 11 12.1906 11 13.3606 10.6715C13.6793 10.5812 13.9696 10.4053 14.2023 10.1614C14.4351 9.91754 14.6022 9.61428 14.6869 9.28202C15 8.05648 15 5.5 15 5.5C15 5.5 15 2.94352 14.6862 1.71798ZM5.96562 7.82099V3.17901L9.88625 5.5L5.96562 7.82099Z" fill="white"/>
</svg>
